<?xml version="1.0" ?><svg xmlns="http://www.w3.org/2000/svg" xmlns:xlink="http://www.w3.org/1999/xlink" version="1.1" viewBox="0 0 512 512" style="enable-background:new 0 0 512 512;" xml:space="preserve"><g id="_x30_4_x2C__medicine_x2C__pharmacy_x2C__drugs_x2C__pills_x2C__capsule_x2C__tablet"><linearGradient id="SVGID_1_" gradientUnits="userSpaceOnUse" x1="43.2033" y1="256" x2="468.7967" y2="256"><stop offset="0" style="stop-color:#185EBC"/><stop offset="0.039" style="stop-color:#2458BB"/><stop offset="0.202" style="stop-color:#5141B6"/><stop offset="0.3659" style="stop-color:#772EB2"/><stop offset="0.5285" style="stop-color:#941FAF"/><stop offset="0.6892" style="stop-color:#A814AD"/><stop offset="0.8474" style="stop-color:#B50EAB"/><stop offset="1" style="stop-color:#B90CAB"/></linearGradient><path style="fill:url(#SVGID_1_);" d="M233.944,291.18h-10.09V281.1c0-16.586-13.494-30.08-30.08-30.08s-30.08,13.494-30.08,30.08   v10.08h-10.08c-16.586,0-30.08,13.498-30.08,30.09c0,16.586,13.494,30.08,30.08,30.08h10.08v10.08   c0,16.586,13.494,30.08,30.08,30.08s30.08-13.494,30.08-30.08v-10.08h10.09c16.586,0,30.08-13.494,30.08-30.08   C264.024,304.678,250.529,291.18,233.944,291.18z M233.944,331.35h-20.09c-5.522,0-10,4.478-10,10v20.08   c0,5.559-4.521,10.08-10.08,10.08s-10.08-4.521-10.08-10.08v-20.08c0-5.522-4.478-10-10-10h-20.08   c-5.559,0-10.08-4.521-10.08-10.08c0-5.563,4.521-10.09,10.08-10.09h20.08c5.522,0,10-4.478,10-10V281.1   c0-5.559,4.521-10.08,10.08-10.08s10.08,4.521,10.08,10.08v20.08c0,5.522,4.478,10,10,10h20.09c5.559,0,10.08,4.526,10.08,10.09   C244.024,326.828,239.502,331.35,233.944,331.35z M453.834,246.068c-19.952-19.951-52.231-19.949-72.182,0l-37.31,37.31V167.33   c0-22.056-17.944-40-40-40h-38.35v-27h48.27c5.522,0,10-4.477,10-10V10c0-5.523-4.478-10-10-10H73.283c-5.522,0-10,4.477-10,10   v80.33c0,5.523,4.478,10,10,10h48.28v27h-38.36c-22.056,0-40,17.944-40,40V472c0,22.056,17.944,40,40,40   c2.759,0,299.126,0,319.54,0c28.144,0,51.04-22.896,51.04-51.04s-22.896-51.04-51.04-51.04h-40.586l91.677-91.669   C473.786,298.299,473.782,266.017,453.834,246.068z M113.453,40.16c-5.522,0-10,4.477-10,10v30.17h-20.17V20h220.979v60.33h-20.159   V50.16c0-5.523-4.478-10-10-10s-10,4.477-10,10v30.17c-6.986,0-13.16,0-20.16,0V50.16c0-5.523-4.478-10-10-10s-10,4.477-10,10   v30.17h-20.17V50.16c0-5.523-4.478-10-10-10s-10,4.477-10,10v30.17h-20.16V50.16c0-5.523-4.478-10-10-10s-10,4.477-10,10v30.17   c-7.01,0-13.166,0-20.16,0V50.16C123.453,44.637,118.976,40.16,113.453,40.16z M245.993,100.33v27h-104.43v-27H245.993z    M63.203,167.33c0-11.028,8.972-20,20-20c25.459,0,198.914,0,221.14,0c11.028,0,20,8.972,20,20v33.49H63.203V167.33z M83.203,492   c-11.028,0-20-8.972-20-20v-30.29h155.469c-6.693,16.444-4.476,35.615,6.809,50.29H83.203z M63.203,421.71V220.82h261.14v82.558   l-39.421,39.421c-18.293,18.293-19.754,47.126-4.411,67.121h-14.558c-12.387,0-23.771,4.422-32.631,11.79H63.203z M324.343,492   h-58.396c-17.112-0.008-31.034-13.932-31.034-31.04c0-17.222,13.954-31.04,31.04-31.04h58.39V492z M402.743,429.92   c17.115,0,31.04,13.925,31.04,31.04S419.859,492,402.743,492h-58.4v-62.08H402.743z M342.962,400.829   c-11.927,11.927-31.583,12.314-43.897,0c-12.1-12.1-12.1-31.788,0-43.888l41.298-41.299l43.891,43.899L342.962,400.829z    M439.693,304.108L398.397,345.4l-43.892-43.899l41.29-41.29c12.133-12.135,31.765-12.133,43.896,0   C451.827,272.346,451.824,291.977,439.693,304.108z"/></g><g id="Layer_1"/></svg>